<svg xmlns="http://www.w3.org/2000/svg" viewBox="0 0 120 80" width="120" height="80">
  <!-- CE mark - official proportions -->
  <!-- C -->
  <path d="M38 10 C18 10 4 24 4 40 C4 56 18 70 38 70 C48 70 56 65 60 58
           L52 52 C49 57 44 60 38 60 C24 60 14 52 14 40 C14 28 24 20 38 20
           C44 20 49 23 52 28 L60 22 C56 15 48 10 38 10 Z"
        fill="#231F20"/>
  <!-- E -->
  <path d="M96 10 C76 10 62 24 62 40 C62 56 76 70 96 70 C106 70 112 65 116 58
           L108 52 C105 57 102 60 96 60 C82 60 72 52 72 40 L116 40 L116 36
           L72 36 C72 24 82 20 96 20 C102 20 105 23 108 28 L116 22
           C112 15 106 10 96 10 Z"
        fill="#231F20"/>
</svg>
