<svg xmlns="http://www.w3.org/2000/svg" viewBox="0 0 100 100" width="100" height="100">
  <!-- Green Dot (Der Grune Punkt) - two intertwined arrows in circle -->
  <circle cx="50" cy="50" r="46" fill="none" stroke="#231F20" stroke-width="2"/>
  <!-- Left arrow (dark) -->
  <path d="M50 8 C28 8 10 26 10 48 C10 58 14 67 20 74 L32 62
           C28 57 26 51 26 44 C26 30 36 18 50 16 Z"
        fill="#231F20"/>
  <polygon points="18,76 32,68 26,80" fill="#231F20"/>
  <!-- Right arrow (light outline) -->
  <path d="M50 92 C72 92 90 74 90 52 C90 42 86 33 80 26 L68 38
           C72 43 74 49 74 56 C74 70 64 82 50 84 Z"
        fill="none" stroke="#231F20" stroke-width="2.5"/>
  <polygon points="82,24 68,32 74,20" fill="none" stroke="#231F20" stroke-width="2.5"/>
</svg>
