<svg xmlns="http://www.w3.org/2000/svg" viewBox="0 0 100 100" width="100" height="100">
  <path d="M50 10 L30 45 L20 40 L50 85 L80 40 L70 45 Z" fill="none" stroke="#000" stroke-width="2"/>
  <path d="M50 10 C35 10 22 20 18 35 L28 38 C31 27 39 18 50 18 Z" fill="#231F20"/>
  <path d="M18 35 C14 50 18 65 30 75 L35 66 C26 59 22 48 25 38 Z" fill="#231F20"/>
  <path d="M30 75 C42 85 58 85 70 75 L65 66 C56 73 44 73 35 66 Z" fill="#231F20"/>
  <path d="M70 75 C82 65 86 50 82 35 L72 38 C74 48 72 59 65 66 Z" fill="#231F20"/>
  <path d="M82 35 C78 20 65 10 50 10 L50 18 C61 18 69 27 72 38 Z" fill="#231F20"/>
  <!-- Three chasing arrows (Mobius loop / recycling symbol) -->
  <polygon points="22,37 14,40 20,30" fill="#231F20"/>
  <polygon points="34,70 27,77 37,77" fill="#231F20"/>
  <polygon points="75,37 83,30 78,42" fill="#231F20"/>
</svg>
